<svg xmlns="http://www.w3.org/2000/svg" xmlns:xlink="http://www.w3.org/1999/xlink" width="31.999" height="31.999" viewBox="0 0 31.999 31.999"><defs><style>.a{fill:none;}.b{fill:url(#a);}</style><linearGradient id="a" x1="0.5" x2="0.5" y2="1" gradientUnits="objectBoundingBox"><stop offset="0" stop-color="#22d57b"/><stop offset="1" stop-color="#159f59"/></linearGradient></defs><rect class="a" width="31.999" height="31.999"/><path class="b" d="M7.1,23.151a2.712,2.712,0,1,1-2.711,2.711A2.711,2.711,0,0,1,7.1,23.151Zm0,3.53a.819.819,0,1,0-.818-.819A.821.821,0,0,0,7.1,26.681Z" transform="translate(15.805 -5.91)"/><path class="b" d="M.45,22.727l.445-3.8A1.35,1.35,0,0,1,2.288,17.7l.973.056,3.023-2.864a1.537,1.537,0,0,1,1.059-.427h6.14a5.866,5.866,0,0,1,3.789,1.4l3.425,2.9L25.3,19.974a1.388,1.388,0,0,1,1.007,1.357v1.4a.365.365,0,0,1,.354.373v1.847a.465.465,0,0,1-.453.476h-2.6c.011-.119.034-.232.034-.353a3.421,3.421,0,1,0-6.834,0c0,.122.024.235.035.353h-7.2c.011-.119.034-.232.034-.353a3.508,3.508,0,0,0-3.417-3.593A3.507,3.507,0,0,0,2.844,25.07a3.429,3.429,0,0,0,.035.353H.453A.465.465,0,0,1,0,24.946V23.2A.461.461,0,0,1,.45,22.727Zm9.114-4.672,8.567.457-1.64-1.387a4.857,4.857,0,0,0-3.143-1.165H9.564ZM8.14,17.979V15.962H7.583a.756.756,0,0,0-.522.211L5.312,17.828Z" transform="translate(2.667 -5.134)"/><path class="b" d="M23.572,23.151a2.712,2.712,0,1,1-2.711,2.711A2.711,2.711,0,0,1,23.572,23.151Zm0,3.53a.819.819,0,1,0-.819-.819A.82.82,0,0,0,23.572,26.681Z" transform="translate(-14.658 -5.91)"/></svg>