<svg xmlns="http://www.w3.org/2000/svg" xmlns:xlink="http://www.w3.org/1999/xlink" width="32" height="32" viewBox="0 0 32 32"><defs><style>.a{fill:none;}.b{fill:url(#a);}.c{fill:url(#b);}.d{fill:url(#c);}</style><linearGradient id="a" x1="0.5" x2="0.5" y2="1" gradientUnits="objectBoundingBox"><stop offset="0" stop-color="#22d57b"/><stop offset="1" stop-color="#24b96e"/></linearGradient><linearGradient id="b" x1="0.5" x2="0.5" y2="1" gradientUnits="objectBoundingBox"><stop offset="0" stop-color="#22d57b"/><stop offset="1" stop-color="#159f59"/></linearGradient><linearGradient id="c" x1="0.5" x2="0.5" y2="1" gradientUnits="objectBoundingBox"><stop offset="0" stop-color="#22d57b"/><stop offset="1" stop-color="#078445"/></linearGradient></defs><g transform="translate(18904 22410)"><rect class="a" width="32" height="32" transform="translate(-18904 -22410)"/><rect class="b" width="2.669" height="5.339" rx="0.5" transform="translate(-18889.334 -22403.334)"/><rect class="c" width="10.678" height="8.008" rx="0.8" transform="translate(-18893.338 -22399.338)"/><path class="d" d="M13.319,10.563a5.318,5.318,0,0,1-2.664-.644,5.318,5.318,0,0,0-2.664-.644,5.321,5.321,0,0,0-2.665.644,5.319,5.319,0,0,1-2.664.644,5.724,5.724,0,0,1-1.527-.185L0,1.267,6.663.167A7.8,7.8,0,0,1,7.992,0,7.885,7.885,0,0,1,9.326.167l6.657,1.1-1.136,9.111A5.757,5.757,0,0,1,13.319,10.563Z" transform="translate(-18895.992 -22393.941)"/></g></svg>