<svg xmlns="http://www.w3.org/2000/svg" xmlns:xlink="http://www.w3.org/1999/xlink" width="31.998" height="31.998" viewBox="0 0 31.998 31.998"><defs><style>.a{fill:none;}.b{fill:url(#a);}.c{fill:url(#b);}</style><linearGradient id="a" x1="0.5" x2="0.5" y2="1" gradientUnits="objectBoundingBox"><stop offset="0" stop-color="#22d57b"/><stop offset="1" stop-color="#159f59"/></linearGradient><linearGradient id="b" x1="0.5" y1="1" x2="0.5" gradientUnits="objectBoundingBox"><stop offset="0" stop-color="#159f59"/><stop offset="1" stop-color="#22d57b"/></linearGradient></defs><g transform="translate(0.001 -3)"><rect class="a" width="31.998" height="31.998" transform="translate(-0.001 3)"/><g transform="translate(0.301 0.333)"><path class="b" d="M-6456.126-3411h-7.816c.011-.115.017-.233.017-.353a3.555,3.555,0,0,0-.878-2.347h6.4v-11.071a1.071,1.071,0,0,1,.4-.864,1.272,1.272,0,0,1,.852-.366.6.6,0,0,1,.073,0h4.669a.432.432,0,0,1,.064,0,1.622,1.622,0,0,1,.99.456c.616.512.616.612.616.615l2.435,3.6a3.833,3.833,0,0,1,.422.893,4.879,4.879,0,0,1,.172,1.042v5.694h.911a.3.3,0,0,1,.3.3v2.1a.3.3,0,0,1-.3.3h-2.475a3.488,3.488,0,0,0,.017-.353,3.484,3.484,0,0,0-3.442-3.517,3.484,3.484,0,0,0-3.442,3.517c0,.121.006.24.017.353Zm-.064-13.3a.355.355,0,0,0-.351.357v4.06a.356.356,0,0,0,.351.359h6.466a.355.355,0,0,0,.351-.359c-.021-.035-2.236-3.728-2.5-4.06s-.392-.357-.96-.357Zm-14.6,13.3h-1.908a.3.3,0,0,1-.3-.3v-2.1a.3.3,0,0,1,.3-.3h2.77a3.555,3.555,0,0,0-.879,2.347c0,.115.006.234.017.352Z" transform="translate(6475.7 3436.998)"/><rect class="c" width="11.999" height="11.999" rx="1" transform="translate(3.999 9.667)"/><path class="b" d="M23.572,23.151a2.712,2.712,0,1,1-2.711,2.711A2.711,2.711,0,0,1,23.572,23.151Zm0,3.53a.819.819,0,1,0-.819-.819A.82.82,0,0,0,23.572,26.681Z" transform="translate(-15.262 -0.245)"/><path class="b" d="M23.572,23.151a2.712,2.712,0,1,1-2.711,2.711A2.711,2.711,0,0,1,23.572,23.151Zm0,3.53a.819.819,0,1,0-.819-.819A.82.82,0,0,0,23.572,26.681Z" transform="translate(-0.597 -0.245)"/></g></g></svg>