<svg xmlns="http://www.w3.org/2000/svg" xmlns:xlink="http://www.w3.org/1999/xlink" width="32" height="32" viewBox="0 0 32 32"><defs><style>.a{fill:url(#a);}.b{fill:none;}</style><linearGradient id="a" x1="0.5" x2="0.5" y2="1" gradientUnits="objectBoundingBox"><stop offset="0" stop-color="#22d57b"/><stop offset="1" stop-color="#159f59"/></linearGradient></defs><path class="a" d="M19006.311,22443.387a4.879,4.879,0,0,1,2.684-4.363l-.482-1.52c-.609.98-2.209,3.281-3.74,3.07a.151.151,0,0,0-.053-.006h-6.42v-2.037a.27.27,0,0,1,.006-.068,1.549,1.549,0,0,0-1.27-.8l-1.121,1.951a4.756,4.756,0,1,1-1.348-.791l.662-1.148h-.531a8.915,8.915,0,0,1-4.982-1.592,1.038,1.038,0,0,1,1.242-1.664,6.918,6.918,0,0,0,3.74,1.172h2.129v-.014c2.746,0,2.8.387,3.535.895.016.012.021.012.027.018h4.094a.045.045,0,0,0,.006-.018s3.109.182,3.328-1.139l-.533-1.668c-.387-1.008-.467-1.219-1.314-1.219h-1.322V22431h1.322c1.84,0,2.254,1.09,2.654,2.145l.027.084,1.711,5.338a5.62,5.62,0,0,1,.795-.059,4.874,4.874,0,1,1-4.846,4.877Zm1.439,0a3.4,3.4,0,1,0,3.406-3.43,3.351,3.351,0,0,0-.35.018l1.033,3.215a.727.727,0,0,1-.467.916.932.932,0,0,1-.217.023.725.725,0,0,1-.691-.49l-1.025-3.219A3.465,3.465,0,0,0,19007.75,22443.387Zm-18.318,0a3.407,3.407,0,1,0,5.754-2.492l-1.686,2.932a.781.781,0,1,1-1.354-.781l1.688-2.941a3.323,3.323,0,0,0-.992-.146A3.42,3.42,0,0,0,18989.432,22443.387Zm10.156,0v-1.7h4.33v1.7Zm11.664-7.889a1.558,1.558,0,0,1,0-3.115h.885v3.115Z" transform="translate(-18985.998 -22424.002)"/><rect class="b" width="32" height="32"/></svg>