<svg xmlns="http://www.w3.org/2000/svg" xmlns:xlink="http://www.w3.org/1999/xlink" width="32" height="32" viewBox="0 0 32 32"><defs><style>.a{fill:none;}.b{fill:url(#a);}.c{fill:url(#d);}</style><linearGradient id="a" x1="0.5" x2="0.5" y2="1" gradientUnits="objectBoundingBox"><stop offset="0" stop-color="#22d57b"/><stop offset="1" stop-color="#159f59"/></linearGradient><linearGradient id="d" x1="0.467" y1="1" x2="0.467" y2="0.113" gradientUnits="objectBoundingBox"><stop offset="0" stop-color="#159f59"/><stop offset="1" stop-color="#22d57b"/></linearGradient></defs><rect class="a" width="32" height="32"/><path class="b" d="M16.727,12,8.6,12a3.333,3.333,0,0,0-6.536,0H.67A.679.679,0,0,1,0,11.332V2.664A2.669,2.669,0,0,1,2.668,0H21.111a3.387,3.387,0,0,1,3.362,2.653l0,.006c.149.422.33.991.424,1.292.035.1.072.216.109.337l.037.119a.062.062,0,0,1,.008.039,8.283,8.283,0,0,1,.279,2.09v4.8a.679.679,0,0,1-.67.671h-1.4a3.328,3.328,0,0,0-6.527,0h0ZM16.4,1.327a.4.4,0,0,0-.4.4v3.2a.4.4,0,0,0,.4.4H23.33a.4.4,0,0,0,.4-.4c0-.008-.157-.8-.4-1.669a2.609,2.609,0,0,0-2.667-1.932Zm-14.065,0a1,1,0,0,0-1,1v2.7a.3.3,0,0,0,.3.3H14.363a.3.3,0,0,0,.3-.3v-3.4a.3.3,0,0,0-.3-.3Z" transform="translate(3.337 10.67)"/><path class="b" d="M23.573,23.151a2.713,2.713,0,1,1-2.712,2.712A2.712,2.712,0,0,1,23.573,23.151Zm0,3.531a.819.819,0,1,0-.819-.819A.821.821,0,0,0,23.573,26.682Z" transform="translate(-14.927 -2.484)"/><path class="b" d="M23.573,23.151a2.713,2.713,0,1,1-2.712,2.712A2.712,2.712,0,0,1,23.573,23.151Zm0,3.531a.819.819,0,1,0-.819-.819A.821.821,0,0,0,23.573,26.682Z" transform="translate(-0.261 -2.484)"/><path class="c" d="M17.336,1.336V.666H2.666v.67H1.336V.666H0V0H20.01V.666H18.672v.67Z" transform="translate(5.331 9.331)"/></svg>