<svg xmlns="http://www.w3.org/2000/svg" xmlns:xlink="http://www.w3.org/1999/xlink" width="32" height="32" viewBox="0 0 32 32"><defs><style>.a{fill:none;}.b{fill:#078445;}.c{fill:url(#a);}</style><linearGradient id="a" x1="0.5" x2="0.5" y2="1" gradientUnits="objectBoundingBox"><stop offset="0" stop-color="#22d57b"/><stop offset="1" stop-color="#159f59"/></linearGradient></defs><rect class="a" width="32" height="32"/><path class="b" d="M0,0H2.668a0,0,0,0,1,0,0V2.622a.4.4,0,0,1-.4.4H.4a.4.4,0,0,1-.4-.4V0A0,0,0,0,1,0,0Z" transform="translate(9.333 20.978)"/><path class="b" d="M0,0H2.668a0,0,0,0,1,0,0V2.622a.4.4,0,0,1-.4.4H.4a.4.4,0,0,1-.4-.4V0A0,0,0,0,1,0,0Z" transform="translate(19.999 20.978)"/><path class="c" d="M15.494,13.338H.5a.5.5,0,0,1-.5-.5V.5A.5.5,0,0,1,.5,0H15.494a.5.5,0,0,1,.5.5V12.839A.5.5,0,0,1,15.494,13.338Zm-2.5-4a1,1,0,1,0,1,1A1,1,0,0,0,13,9.337Zm-10,0a1,1,0,1,0,1,1A1,1,0,0,0,3,9.337Zm-1.166-8a.5.5,0,0,0-.5.5V7.5a.5.5,0,0,0,.5.5H14.161a.5.5,0,0,0,.5-.5V1.834a.5.5,0,0,0-.5-.5Z" transform="translate(8.003 7.998)"/></svg>