<svg xmlns="http://www.w3.org/2000/svg" xmlns:xlink="http://www.w3.org/1999/xlink" width="32" height="32" viewBox="0 0 32 32"><defs><style>.a{fill:none;}.b{fill:url(#a);}.c{fill:url(#c);}</style><linearGradient id="a" x1="0.5" x2="0.5" y2="1" gradientUnits="objectBoundingBox"><stop offset="0" stop-color="#24b96e"/><stop offset="1" stop-color="#159f59"/></linearGradient><linearGradient id="c" x1="0.5" x2="0.5" y2="1" gradientUnits="objectBoundingBox"><stop offset="0" stop-color="#22d57b"/><stop offset="1" stop-color="#159f59"/></linearGradient></defs><rect class="a" width="32" height="32"/><rect class="b" width="1.334" height="10.67" rx="0.667" transform="matrix(0.985, 0.174, -0.174, 0.985, 9.586, 18.592)"/><rect class="b" width="1.334" height="10.67" rx="0.667" transform="translate(21.132 18.87) rotate(-9)"/><path class="c" d="M15.505,13.338H.5a.5.5,0,0,1-.5-.5V3A3,3,0,0,1,3,0H13.006a3,3,0,0,1,3,3v9.838A.5.5,0,0,1,15.505,13.338ZM12.337,9.67a1,1,0,1,0,1,1A1,1,0,0,0,12.337,9.67Zm-8.67,0a1,1,0,1,0,1,1A1,1,0,0,0,3.668,9.67Zm5.3-7a.3.3,0,0,0-.3.3v3.4a.3.3,0,0,0,.3.3h5.4a.3.3,0,0,0,.3-.3v-2.7a1,1,0,0,0-1-1Zm-6.636,0a1,1,0,0,0-1,1v2.7a.3.3,0,0,0,.3.3h5.4a.3.3,0,0,0,.3-.3v-3.4a.3.3,0,0,0-.3-.3Z" transform="translate(7.997 6.665)"/></svg>