<svg xmlns="http://www.w3.org/2000/svg" xmlns:xlink="http://www.w3.org/1999/xlink" width="32" height="32" viewBox="0 0 32 32"><defs><style>.a{fill:none;}.b{fill:url(#a);}.c{fill:url(#b);}</style><linearGradient id="a" x1="0.5" y1="1" x2="0.5" y2="0.059" gradientUnits="objectBoundingBox"><stop offset="0" stop-color="#159f59"/><stop offset="1" stop-color="#22d57b"/></linearGradient><linearGradient id="b" y2="0" xlink:href="#a"/></defs><rect class="a" width="32" height="32"/><path class="b" d="M20.328,18.676H1a1,1,0,0,1-1-1V1A1,1,0,0,1,1,0H20.328a1,1,0,0,1,1,1V17.676A1,1,0,0,1,20.328,18.676Zm-13-13.34a.667.667,0,0,0,0,1.334H14a.667.667,0,0,0,0-1.334Z" transform="translate(5.336 7.995)"/><rect class="c" width="26.664" height="5.336" rx="1" transform="translate(2.668 5.333)"/></svg>