<svg xmlns="http://www.w3.org/2000/svg" xmlns:xlink="http://www.w3.org/1999/xlink" width="32" height="32" viewBox="0 0 32 32"><defs><style>.a{fill:none;}.b{fill:url(#a);}</style><linearGradient id="a" x1="0.5" x2="0.5" y2="1" gradientUnits="objectBoundingBox"><stop offset="0" stop-color="#22d57b"/><stop offset="1" stop-color="#159f59"/></linearGradient></defs><g transform="translate(2 -59.727)"><rect class="a" width="32" height="32" transform="translate(-2 59.727)"/><path class="b" d="M21.582,71.451a5.034,5.034,0,0,0-.615.039L19.7,67.1a.835.835,0,0,0-.626-1.376h-3.4a.834.834,0,0,0,0,1.668h2.154l-.876,1.41a.764.764,0,0,0-.118-.007l-7.364.108a.836.836,0,0,0-.526-1.476H6.957a.834.834,0,0,0,0,1.668h.148a.836.836,0,0,0,.091.217l.331.551L6.614,71.69a5.013,5.013,0,0,0-1.532-.239,5.141,5.141,0,0,0,0,10.282,5.1,5.1,0,0,0,4.958-4.015l2.719.159h.048a.823.823,0,0,0,.7-.39l5.1-8.215.775,2.684a5.072,5.072,0,1,0,2.2-.506Zm-13.046.093,2.748,4.575-1.148-.067a5.154,5.154,0,0,0-2.053-3.605ZM1.649,76.592a3.457,3.457,0,0,1,3.433-3.473,3.387,3.387,0,0,1,.771.089L4.347,76.215a.842.842,0,0,0,.021.793.824.824,0,0,0,.667.417l3.328.195a3.429,3.429,0,0,1-6.713-1.027Zm4.738-.759.936-1.868a3.482,3.482,0,0,1,1.133,1.989Zm6.431-.373L9.88,70.569l6.031-.089Zm8.764,4.6a3.479,3.479,0,0,1-1.726-6.473l.934,3.234a.823.823,0,0,0,1.023.567.835.835,0,0,0,.56-1.034l-.934-3.235c.047,0,.095,0,.143,0a3.473,3.473,0,0,1,0,6.945Z" transform="translate(0.668 1.997)"/></g></svg>