<svg xmlns="http://www.w3.org/2000/svg" xmlns:xlink="http://www.w3.org/1999/xlink" width="32" height="32" viewBox="0 0 32 32"><defs><style>.a{fill:none;}.b{fill:#159f59;}.c{fill:url(#a);}.d{fill:url(#c);}.e{fill:#fff;}</style><linearGradient id="a" x1="0.5" y1="1" x2="0.5" gradientUnits="objectBoundingBox"><stop offset="0" stop-color="#159f59"/><stop offset="1" stop-color="#22d57b"/></linearGradient><linearGradient id="c" x1="0.5" y1="1" x2="0.5" gradientUnits="objectBoundingBox"><stop offset="0" stop-color="#24b96e"/><stop offset="1" stop-color="#2ffd96"/></linearGradient></defs><rect class="a" width="32" height="32"/><rect class="b" width="2.669" height="5.338" rx="1" transform="translate(7.999 26.662)"/><rect class="b" width="2.669" height="5.338" rx="1" transform="translate(21.332 26.662)"/><path class="c" d="M1.335,8.008H1a1,1,0,0,1-1-1V1A1,1,0,0,1,1,0H6.924a1,1,0,0,1,1,1V7.007a1,1,0,0,1-1,1H6.589V1.335H1.335V8.007Z" transform="translate(12.038 0)"/><rect class="c" width="21.324" height="26.662" rx="1" transform="translate(5.338 2.669)"/><path class="d" d="M0,21.352V1A1,1,0,0,1,1,0H14.986a1,1,0,0,1,1,1V21.352Z" transform="translate(8.007 7.979)"/><rect class="e" width="5.338" height="1.334" rx="0.667" transform="translate(13.331 10.666)"/></svg>